<svg width="50" height="50" viewBox="0 0 50 50" fill="none" xmlns="http://www.w3.org/2000/svg">
<path d="M3.33332 0H0V49.9999H49.9999V48.3543C50 48.3473 50 48.3402 50 48.3332V8.33331C50 7.41284 49.2538 6.66665 48.3333 6.66665C47.4129 6.66665 46.6667 7.41284 46.6667 8.33331C46.6667 15.603 45.0492 21.1065 42.7575 24.7349C40.4581 28.3757 37.5895 29.9999 35 29.9999C33.9308 29.9999 32.8603 29.4746 31.6513 28.3586C30.4307 27.2318 29.2739 25.6983 28.0001 23.9999L27.9477 23.9301C26.7356 22.3139 25.4095 20.5456 23.943 19.1919C22.4437 17.8079 20.5975 16.6666 18.3334 16.6666C14.0063 16.6666 11.0749 19.9364 9.31042 23.9064C7.52084 27.9329 6.66678 33.1813 6.66678 38.3332V38.9906C6.66678 41.798 5.43477 44.4422 3.33332 46.2458V0Z" fill="#E01A4F"/>
</svg>
