<svg width="420" height="420" viewBox="0 0 420 420" fill="none" xmlns="http://www.w3.org/2000/svg">
<rect width="420" height="420" rx="210" fill="white"/>
<g filter="url(#filter0_d)">
<path d="M386.795 308.956C386.357 314.329 347.321 300.658 291.106 296.069C234.891 291.481 222.098 295.845 222.537 290.472C222.846 286.681 230.725 278.102 286.94 282.69C343.155 287.279 387.234 303.582 386.795 308.956Z" fill="#EA7146"/>
</g>
<g filter="url(#filter1_d)">
<path d="M306.561 280.518C307.571 288.822 268.02 252.329 188.593 261.994C109.167 271.659 41.8875 309.233 40.877 300.929C39.8665 292.625 107.547 258.342 186.973 248.677C266.399 239.012 305.55 272.214 306.561 280.518Z" fill="#EA7146"/>
</g>
<path d="M263.133 86.0769C263.16 94.4678 234.78 86.167 194.563 86.2948C154.345 86.4226 121.769 94.917 121.742 86.5262C121.716 78.1354 154.297 71.2297 194.514 71.1019C234.732 70.9741 263.107 77.6861 263.133 86.0769Z" fill="#EA7146"/>
<path d="M320.918 106.105C313.897 115.334 312.688 99.8446 301.014 90.9651C289.341 82.0855 272.857 84.117 279.877 74.8872C286.898 65.6575 302.053 65.3736 313.726 74.2531C325.4 83.1327 327.938 96.8749 320.918 106.105Z" fill="#040404"/>
<path d="M190.498 142.559C185.054 151.228 177.024 134.099 157.912 122.099C138.8 110.099 117.863 109.041 123.307 100.371C128.75 91.7016 148.656 94.4015 167.768 106.401C186.88 118.401 195.941 133.889 190.498 142.559Z" fill="#EA7146"/>
<path d="M174.179 209.582C169.153 207.844 178.323 197.597 184.201 180.598C190.08 163.598 189.819 148.079 194.845 149.817C199.871 151.555 199.18 166.745 193.301 183.744C187.423 200.744 179.204 211.32 174.179 209.582Z" fill="#EA7146"/>
<path d="M247.743 122.211C249.222 117.104 259.923 125.74 277.199 130.746C294.476 135.752 309.961 134.702 308.482 139.81C307.002 144.918 291.796 145 274.52 139.994C257.243 134.989 246.263 127.319 247.743 122.211Z" fill="#EA7146"/>
<path d="M261.938 95.6251C265.37 98.0791 258.667 100.2 254.027 106.689C249.387 113.178 249.058 120.892 245.626 118.438C242.194 115.984 243.173 108.735 247.814 102.246C252.454 95.7566 258.507 93.1712 261.938 95.6251Z" fill="#EA7146"/>
<path d="M286.263 157.637C283.884 153.813 278.813 152.603 275.329 155.456C264.657 164.194 257.091 176.258 253.927 189.837C250.142 206.079 252.964 223.16 261.773 237.322C270.581 251.483 284.655 261.566 300.897 265.351C314.476 268.515 328.642 267.061 341.197 261.352C345.297 259.488 346.453 254.404 344.074 250.58C341.696 246.756 336.682 245.66 332.501 247.336C323.699 250.866 313.961 251.648 304.599 249.466C292.569 246.663 282.373 239.642 275.849 229.153C269.326 218.665 267.008 205.568 269.811 193.539C271.993 184.177 276.999 175.787 284.056 169.452C287.408 166.443 288.642 161.462 286.263 157.637Z" fill="#040404"/>
<path d="M118.132 254.265C120.226 258.252 125.195 259.829 128.878 257.237C140.159 249.301 148.584 237.821 152.731 224.509C157.69 208.586 156.121 191.345 148.369 176.579C140.617 161.812 127.316 150.73 111.393 145.771C98.0805 141.624 83.8469 142.041 70.9085 146.82C66.6835 148.38 65.1597 153.365 67.2533 157.353C69.3468 161.341 74.2673 162.799 78.5588 161.432C87.5952 158.554 97.3645 158.484 106.543 161.343C118.336 165.016 127.992 172.762 133.734 183.699C139.475 194.635 140.832 207.866 137.159 219.659C134.3 228.837 128.695 236.838 121.194 242.642C117.632 245.399 116.039 250.277 118.132 254.265Z" fill="#040404"/>
<path d="M97.386 351H91.912L85.61 318.8H89.658L94.718 346.952L100.192 318.8H104.148L97.386 351ZM123.406 343.18C123.406 345.787 122.686 347.749 121.244 349.068C119.834 350.356 117.794 351 115.126 351H109.054V347.504H115.586C116.721 347.504 117.641 347.167 118.346 346.492C119.052 345.817 119.404 345.005 119.404 344.054V339.27C119.404 338.35 119.159 337.614 118.668 337.062C118.208 336.479 117.503 336.188 116.552 336.188H115.632C113.363 336.188 111.569 335.529 110.25 334.21C108.932 332.861 108.272 330.913 108.272 328.368V326.62C108.272 324.013 108.978 322.066 110.388 320.778C111.83 319.459 113.884 318.8 116.552 318.8H122.67V322.296H116.092C114.958 322.296 114.038 322.633 113.332 323.308C112.627 323.983 112.274 324.795 112.274 325.746V329.242C112.274 330.193 112.581 330.99 113.194 331.634C113.808 332.247 114.605 332.554 115.586 332.554H116.506C118.684 332.554 120.37 333.183 121.566 334.44C122.793 335.697 123.406 337.599 123.406 340.144V343.18ZM129.867 351V318.8H133.869V347.504H144.127V351H129.867ZM148.734 351V318.8H152.736V347.504H162.994V351H148.734ZM187.371 351C184.703 351 182.648 350.356 181.207 349.068C179.796 347.749 179.091 345.787 179.091 343.18V326.62C179.091 324.013 179.796 322.066 181.207 320.778C182.648 319.459 184.703 318.8 187.371 318.8H192.983V322.296H186.911C185.776 322.296 184.856 322.633 184.151 323.308C183.445 323.983 183.093 324.795 183.093 325.746V344.054C183.093 345.005 183.445 345.817 184.151 346.492C184.856 347.167 185.776 347.504 186.911 347.504H192.983V351H187.371ZM212.578 351L210.83 342.858H201.86L200.066 351H195.972L203.746 318.8H209.036L216.672 351H212.578ZM206.322 321.836L202.596 339.408H210.094L206.322 321.836ZM235.486 343.18C235.486 345.787 234.766 347.749 233.324 349.068C231.914 350.356 229.874 351 227.206 351H221.134V347.504H227.666C228.801 347.504 229.721 347.167 230.426 346.492C231.132 345.817 231.484 345.005 231.484 344.054V339.27C231.484 338.35 231.239 337.614 230.748 337.062C230.288 336.479 229.583 336.188 228.632 336.188H227.712C225.443 336.188 223.649 335.529 222.33 334.21C221.012 332.861 220.352 330.913 220.352 328.368V326.62C220.352 324.013 221.058 322.066 222.468 320.778C223.91 319.459 225.964 318.8 228.632 318.8H234.75V322.296H228.172C227.038 322.296 226.118 322.633 225.412 323.308C224.707 323.983 224.354 324.795 224.354 325.746V329.242C224.354 330.193 224.661 330.99 225.274 331.634C225.888 332.247 226.685 332.554 227.666 332.554H228.586C230.764 332.554 232.45 333.183 233.646 334.44C234.873 335.697 235.486 337.599 235.486 340.144V343.18ZM249.813 322.296V351H245.811V322.296H238.727V318.8H256.897V322.296H249.813ZM269.584 337.66H265.49V351H261.488V318.8H269.722C272.329 318.8 274.291 319.383 275.61 320.548C276.959 321.683 277.634 323.492 277.634 325.976V330.392C277.634 333.857 276.254 336.019 273.494 336.878L279.888 351H275.518L269.584 337.66ZM273.632 325.562C273.632 324.397 273.356 323.553 272.804 323.032C272.283 322.511 271.439 322.25 270.274 322.25H265.49V334.21H270.274C271.439 334.21 272.283 333.949 272.804 333.428C273.356 332.876 273.632 332.017 273.632 330.852V325.562ZM285.387 351V318.8H300.475V322.158H289.389V332.692H299.325V336.05H289.389V347.642H300.475V351H285.387ZM320.883 343.18C320.883 345.787 320.162 347.749 318.721 349.068C317.31 350.356 315.271 351 312.603 351H306.531V347.504H313.063C314.197 347.504 315.117 347.167 315.823 346.492C316.528 345.817 316.881 345.005 316.881 344.054V339.27C316.881 338.35 316.635 337.614 316.145 337.062C315.685 336.479 314.979 336.188 314.029 336.188H313.109C310.839 336.188 309.045 335.529 307.727 334.21C306.408 332.861 305.749 330.913 305.749 328.368V326.62C305.749 324.013 306.454 322.066 307.865 320.778C309.306 319.459 311.361 318.8 314.029 318.8H320.147V322.296H313.569C312.434 322.296 311.514 322.633 310.809 323.308C310.103 323.983 309.751 324.795 309.751 325.746V329.242C309.751 330.193 310.057 330.99 310.671 331.634C311.284 332.247 312.081 332.554 313.063 332.554H313.983C316.16 332.554 317.847 333.183 319.043 334.44C320.269 335.697 320.883 337.599 320.883 340.144V343.18Z" fill="#040404"/>
<defs>
<filter id="filter0_d" x="216" y="271.52" width="186.264" height="52.9758" filterUnits="userSpaceOnUse" color-interpolation-filters="sRGB">
<feFlood flood-opacity="0" result="BackgroundImageFix"/>
<feColorMatrix in="SourceAlpha" type="matrix" values="0 0 0 0 0 0 0 0 0 0 0 0 0 0 0 0 0 0 127 0"/>
<feOffset dx="4" dy="4"/>
<feGaussianBlur stdDeviation="5"/>
<feColorMatrix type="matrix" values="0 0 0 0 0 0 0 0 0 0 0 0 0 0 0 0 0 0 0.1 0"/>
<feBlend mode="normal" in2="BackgroundImageFix" result="effect1_dropShadow"/>
<feBlend mode="normal" in="SourceGraphic" in2="effect1_dropShadow" result="shape"/>
</filter>
<filter id="filter1_d" x="30.7432" y="228.802" width="289.954" height="98.9901" filterUnits="userSpaceOnUse" color-interpolation-filters="sRGB">
<feFlood flood-opacity="0" result="BackgroundImageFix"/>
<feColorMatrix in="SourceAlpha" type="matrix" values="0 0 0 0 0 0 0 0 0 0 0 0 0 0 0 0 0 0 127 0"/>
<feOffset dx="4" dy="4"/>
<feGaussianBlur stdDeviation="5"/>
<feColorMatrix type="matrix" values="0 0 0 0 0 0 0 0 0 0 0 0 0 0 0 0 0 0 0.1 0"/>
<feBlend mode="normal" in2="BackgroundImageFix" result="effect1_dropShadow"/>
<feBlend mode="normal" in="SourceGraphic" in2="effect1_dropShadow" result="shape"/>
</filter>
</defs>
</svg>
